<svg width="108" height="32" viewBox="0 0 108 32" fill="none" xmlns="http://www.w3.org/2000/svg">
<path d="M37.076 22V11.0909H41.1669C42.005 11.0909 42.7081 11.2472 43.2763 11.5597C43.848 11.8722 44.2795 12.3018 44.5707 12.8487C44.8654 13.392 45.0128 14.0099 45.0128 14.7024C45.0128 15.402 44.8654 16.0234 44.5707 16.5668C44.2759 17.1101 43.8409 17.538 43.2656 17.8505C42.6903 18.1594 41.9819 18.3139 41.1403 18.3139H38.429V16.6893H40.8739C41.364 16.6893 41.7653 16.604 42.0778 16.4336C42.3903 16.2631 42.6211 16.0288 42.7702 15.7305C42.9229 15.4322 42.9993 15.0895 42.9993 14.7024C42.9993 14.3153 42.9229 13.9744 42.7702 13.6797C42.6211 13.3849 42.3885 13.1559 42.0724 12.9925C41.7599 12.8256 41.3569 12.7422 40.8633 12.7422H39.0522V22H37.076ZM48.5724 17.206V22H46.6441V11.0909H48.5297V15.2085H48.6256C48.8174 14.7468 49.1139 14.3828 49.5152 14.1165C49.92 13.8466 50.4349 13.7116 51.0599 13.7116C51.6281 13.7116 52.1235 13.8306 52.5461 14.0685C52.9687 14.3065 53.2954 14.6545 53.5262 15.1126C53.7606 15.5707 53.8778 16.13 53.8778 16.7905V22H51.9495V17.0888C51.9495 16.5384 51.8074 16.1104 51.5233 15.805C51.2428 15.4961 50.8486 15.3416 50.3408 15.3416C49.9999 15.3416 49.6945 15.4162 49.4246 15.5653C49.1583 15.7109 48.9488 15.9222 48.7961 16.1992C48.6469 16.4762 48.5724 16.8118 48.5724 17.206ZM59.4122 22.1598C58.6132 22.1598 57.9207 21.984 57.3348 21.6325C56.7488 21.2809 56.2943 20.7891 55.9711 20.157C55.6515 19.5249 55.4917 18.7862 55.4917 17.9411C55.4917 17.0959 55.6515 16.3555 55.9711 15.7198C56.2943 15.0842 56.7488 14.5906 57.3348 14.239C57.9207 13.8874 58.6132 13.7116 59.4122 13.7116C60.2112 13.7116 60.9037 13.8874 61.4896 14.239C62.0756 14.5906 62.5283 15.0842 62.8479 15.7198C63.1711 16.3555 63.3327 17.0959 63.3327 17.9411C63.3327 18.7862 63.1711 19.5249 62.8479 20.157C62.5283 20.7891 62.0756 21.2809 61.4896 21.6325C60.9037 21.984 60.2112 22.1598 59.4122 22.1598ZM59.4229 20.6151C59.8561 20.6151 60.2183 20.4961 60.5095 20.2582C60.8007 20.0167 61.0173 19.6935 61.1594 19.2887C61.305 18.8839 61.3778 18.4329 61.3778 17.9357C61.3778 17.435 61.305 16.9822 61.1594 16.5774C61.0173 16.169 60.8007 15.8441 60.5095 15.6026C60.2183 15.3612 59.8561 15.2404 59.4229 15.2404C58.979 15.2404 58.6096 15.3612 58.3149 15.6026C58.0237 15.8441 57.8053 16.169 57.6597 16.5774C57.5177 16.9822 57.4466 17.435 57.4466 17.9357C57.4466 18.4329 57.5177 18.8839 57.6597 19.2887C57.8053 19.6935 58.0237 20.0167 58.3149 20.2582C58.6096 20.4961 58.979 20.6151 59.4229 20.6151ZM69.0549 13.8182V15.3097H64.3514V13.8182H69.0549ZM65.5126 11.858H67.4409V19.5391C67.4409 19.7983 67.4799 19.9972 67.5581 20.1357C67.6397 20.2706 67.7463 20.3629 67.8777 20.4126C68.0091 20.4624 68.1547 20.4872 68.3145 20.4872C68.4352 20.4872 68.5453 20.4783 68.6447 20.4606C68.7477 20.4428 68.8258 20.4268 68.8791 20.4126L69.204 21.9201C69.101 21.9556 68.9537 21.9947 68.7619 22.0373C68.5737 22.0799 68.3429 22.1048 68.0694 22.1119C67.5865 22.1261 67.1515 22.0533 66.7644 21.8935C66.3773 21.7301 66.0701 21.478 65.8429 21.1371C65.6191 20.7962 65.5091 20.37 65.5126 19.8587V11.858ZM70.6675 22V13.8182H72.5958V22H70.6675ZM71.637 12.657C71.3316 12.657 71.0688 12.5558 70.8486 12.3533C70.6285 12.1474 70.5184 11.9006 70.5184 11.6129C70.5184 11.3217 70.6285 11.0749 70.8486 10.8725C71.0688 10.6665 71.3316 10.5636 71.637 10.5636C71.9459 10.5636 72.2087 10.6665 72.4253 10.8725C72.6455 11.0749 72.7556 11.3217 72.7556 11.6129C72.7556 11.9006 72.6455 12.1474 72.4253 12.3533C72.2087 12.5558 71.9459 12.657 71.637 12.657ZM78.1475 22.1598C77.3485 22.1598 76.6561 21.984 76.0701 21.6325C75.4842 21.2809 75.0297 20.7891 74.7065 20.157C74.3869 19.5249 74.2271 18.7862 74.2271 17.9411C74.2271 17.0959 74.3869 16.3555 74.7065 15.7198C75.0297 15.0842 75.4842 14.5906 76.0701 14.239C76.6561 13.8874 77.3485 13.7116 78.1475 13.7116C78.9466 13.7116 79.639 13.8874 80.225 14.239C80.8109 14.5906 81.2637 15.0842 81.5833 15.7198C81.9064 16.3555 82.068 17.0959 82.068 17.9411C82.068 18.7862 81.9064 19.5249 81.5833 20.157C81.2637 20.7891 80.8109 21.2809 80.225 21.6325C79.639 21.984 78.9466 22.1598 78.1475 22.1598ZM78.1582 20.6151C78.5914 20.6151 78.9537 20.4961 79.2449 20.2582C79.536 20.0167 79.7527 19.6935 79.8947 19.2887C80.0403 18.8839 80.1131 18.4329 80.1131 17.9357C80.1131 17.435 80.0403 16.9822 79.8947 16.5774C79.7527 16.169 79.536 15.8441 79.2449 15.6026C78.9537 15.3612 78.5914 15.2404 78.1582 15.2404C77.7143 15.2404 77.345 15.3612 77.0502 15.6026C76.7591 15.8441 76.5407 16.169 76.3951 16.5774C76.253 16.9822 76.182 17.435 76.182 17.9357C76.182 18.4329 76.253 18.8839 76.3951 19.2887C76.5407 19.6935 76.7591 20.0167 77.0502 20.2582C77.345 20.4961 77.7143 20.6151 78.1582 20.6151ZM90.1713 15.9808L88.4134 16.1726C88.3637 15.995 88.2767 15.8281 88.1524 15.6719C88.0317 15.5156 87.8683 15.3896 87.6624 15.2937C87.4564 15.1978 87.2043 15.1499 86.906 15.1499C86.5047 15.1499 86.1673 15.2369 85.8939 15.4109C85.624 15.5849 85.4909 15.8104 85.4944 16.0874C85.4909 16.3253 85.5779 16.5188 85.7554 16.668C85.9365 16.8171 86.2348 16.9396 86.6503 17.0355L88.0459 17.3338C88.82 17.5007 89.3953 17.7653 89.7718 18.1275C90.1517 18.4897 90.3435 18.9638 90.347 19.5497C90.3435 20.0646 90.1926 20.5192 89.8943 20.9134C89.5995 21.304 89.1894 21.6094 88.6638 21.8295C88.1382 22.0497 87.5345 22.1598 86.8527 22.1598C85.8513 22.1598 85.0452 21.9503 84.4344 21.5312C83.8236 21.1087 83.4596 20.521 83.3424 19.7681L85.2227 19.587C85.308 19.9563 85.4891 20.2351 85.7661 20.4233C86.0431 20.6115 86.4035 20.7056 86.8474 20.7056C87.3055 20.7056 87.673 20.6115 87.95 20.4233C88.2306 20.2351 88.3708 20.0025 88.3708 19.7255C88.3708 19.4911 88.2803 19.2976 88.0992 19.1449C87.9216 18.9922 87.6446 18.875 87.2682 18.7933L85.8726 18.5004C85.0878 18.337 84.5072 18.0618 84.1308 17.6747C83.7544 17.2841 83.5679 16.7905 83.5715 16.1939C83.5679 15.6896 83.7046 15.2528 83.9816 14.8835C84.2622 14.5107 84.651 14.223 85.1482 14.0206C85.6489 13.8146 86.2259 13.7116 86.8794 13.7116C87.8382 13.7116 88.5928 13.9158 89.1432 14.3242C89.6972 14.7326 90.0399 15.2848 90.1713 15.9808ZM95.1439 22H93.0345L96.8751 11.0909H99.3147L103.161 22H101.051L98.1375 13.3281H98.0523L95.1439 22ZM95.2132 17.7227H100.966V19.31H95.2132V17.7227ZM105.574 11.0909V22H103.597V11.0909H105.574Z" fill="white"/>
<path d="M0 3.11006C0 1.39242 1.39242 0 3.11005 0H27.9905C29.7081 0 31.1005 1.39242 31.1005 3.11006V27.9905C31.1005 29.7082 29.7081 31.1006 27.9905 31.1006H3.11005C1.39242 31.1006 0 29.7082 0 27.9905V3.11006Z" fill="#2E78F3"/>
<path d="M8.91548 26.9318V5.18182H12.5817V7.79759H12.7979C12.9902 7.41312 13.2614 7.00462 13.6115 6.57209C13.9616 6.13269 14.4354 5.75852 15.0327 5.44957C15.63 5.13376 16.392 4.97585 17.3189 4.97585C18.541 4.97585 19.6429 5.28823 20.6246 5.913C21.6133 6.53089 22.396 7.44744 22.9727 8.66264C23.5562 9.87097 23.848 11.3539 23.848 13.1115C23.848 14.8485 23.5631 16.3246 22.9933 17.5398C22.4234 18.755 21.6476 19.6818 20.6658 20.3203C19.6841 20.9588 18.5719 21.2781 17.3292 21.2781C16.4229 21.2781 15.6712 21.127 15.0739 20.8249C14.4766 20.5228 13.996 20.159 13.6321 19.7333C13.2751 19.3008 12.997 18.8923 12.7979 18.5078H12.6435V26.9318H8.91548ZM12.5714 13.0909C12.5714 14.1139 12.7156 15.0098 13.0039 15.7788C13.2991 16.5477 13.7214 17.1484 14.2706 17.581C14.8267 18.0066 15.4995 18.2195 16.2891 18.2195C17.1129 18.2195 17.8029 17.9998 18.359 17.5604C18.9151 17.1141 19.3339 16.5065 19.6154 15.7376C19.9038 14.9618 20.0479 14.0795 20.0479 13.0909C20.0479 12.1091 19.9072 11.2372 19.6257 10.4751C19.3442 9.71307 18.9254 9.11577 18.3693 8.68324C17.8132 8.25071 17.1198 8.03445 16.2891 8.03445C15.4927 8.03445 14.8164 8.24384 14.2603 8.66264C13.7042 9.08144 13.282 9.66844 12.9936 10.4237C12.7121 11.1789 12.5714 12.0679 12.5714 13.0909Z" fill="white"/>
</svg>
